<svg width="50" height="50" viewBox="0 0 50 50" fill="none" xmlns="http://www.w3.org/2000/svg">
<path d="M42.5 5H6.5625C5.69824 5 5 5.69824 5 6.5625V42.5C5 43.3643 5.69824 44.0625 6.5625 44.0625H42.5C43.3643 44.0625 44.0625 43.3643 44.0625 42.5V6.5625C44.0625 5.69824 43.3643 5 42.5 5ZM37.9883 16.4014H34.8682C32.4219 16.4014 31.9482 17.5635 31.9482 19.2725V23.0371H37.7881L37.0264 28.9307H31.9482V44.0625H25.8594V28.9355H20.7666V23.0371H25.8594V18.6914C25.8594 13.6475 28.9404 10.8984 33.4424 10.8984C35.6006 10.8984 37.4512 11.0596 37.9932 11.1328V16.4014H37.9883Z" fill="black"/>
</svg>
