<svg width="50" height="50" viewBox="0 0 50 50" fill="none" xmlns="http://www.w3.org/2000/svg">
<path d="M44.6429 3.125H5.35714C2.39955 3.125 0 5.22461 0 7.8125V42.1875C0 44.7754 2.39955 46.875 5.35714 46.875H44.6429C47.6004 46.875 50 44.7754 50 42.1875V7.8125C50 5.22461 47.6004 3.125 44.6429 3.125ZM39.1853 18.6328C39.2076 18.9062 39.2076 19.1895 39.2076 19.4629C39.2076 27.9297 31.8415 37.6855 18.3817 37.6855C14.2299 37.6855 10.3795 36.6309 7.14286 34.8145C7.73438 34.873 8.30357 34.8926 8.90625 34.8926C12.3326 34.8926 15.4799 33.877 17.9911 32.1582C14.7768 32.0996 12.0759 30.2539 11.1496 27.7148C12.2768 27.8613 13.2924 27.8613 14.4531 27.5977C11.1049 27.002 8.59375 24.4238 8.59375 21.3086V21.2305C9.56473 21.709 10.7031 22.002 11.8973 22.041C10.8933 21.4567 10.0703 20.6639 9.50164 19.7335C8.93299 18.8032 8.63642 17.7641 8.63839 16.709C8.63839 15.5176 8.99554 14.4238 9.6317 13.4766C13.2366 17.3633 18.6496 19.9023 24.721 20.1758C23.683 15.8301 27.3996 12.3047 31.8638 12.3047C33.9732 12.3047 35.8705 13.0762 37.2098 14.3262C38.8616 14.0527 40.4464 13.5156 41.8527 12.7832C41.3058 14.2676 40.1562 15.5176 38.6384 16.3086C40.1116 16.1719 41.5402 15.8105 42.8571 15.3125C41.8638 16.5918 40.6138 17.7246 39.1853 18.6328Z" fill="black"/>
</svg>
