<svg width="50" height="50" viewBox="0 0 50 50" fill="none" xmlns="http://www.w3.org/2000/svg">
<path d="M4.16669 14.5834C4.16669 13.4783 4.60567 12.4185 5.38708 11.6371C6.16848 10.8557 7.22828 10.4167 8.33335 10.4167H41.6667C42.7718 10.4167 43.8316 10.8557 44.613 11.6371C45.3944 12.4185 45.8334 13.4783 45.8334 14.5834V35.4167C45.8334 36.5218 45.3944 37.5816 44.613 38.363C43.8316 39.1444 42.7718 39.5834 41.6667 39.5834H8.33335C7.22828 39.5834 6.16848 39.1444 5.38708 38.363C4.60567 37.5816 4.16669 36.5218 4.16669 35.4167V14.5834Z" stroke="black" stroke-width="4.16667" stroke-linecap="round" stroke-linejoin="round"/>
<path d="M25 31.25C28.4518 31.25 31.25 28.4518 31.25 25C31.25 21.5482 28.4518 18.75 25 18.75C21.5482 18.75 18.75 21.5482 18.75 25C18.75 28.4518 21.5482 31.25 25 31.25Z" stroke="black" stroke-width="4.16667" stroke-linecap="round" stroke-linejoin="round"/>
<path d="M4.16669 18.75C6.37682 18.75 8.49644 17.872 10.0592 16.3092C11.622 14.7464 12.5 12.6268 12.5 10.4167" stroke="black" stroke-width="4.16667" stroke-linecap="round" stroke-linejoin="round"/>
<path d="M37.5 39.5833C37.5 37.3732 38.378 35.2536 39.9408 33.6908C41.5036 32.128 43.6232 31.25 45.8333 31.25" stroke="black" stroke-width="4.16667" stroke-linecap="round" stroke-linejoin="round"/>
</svg>
