<svg width="50" height="50" viewBox="0 0 50 50" fill="none" xmlns="http://www.w3.org/2000/svg">
<path d="M13.75 16.86C14.6175 15.905 16.0375 15 18.125 15C21.005 15 22.86 16.98 23.5125 19.1525C24.145 21.27 23.7625 23.89 21.9625 25.6975C21.3382 26.2977 20.676 26.8572 19.98 27.3725L19.88 27.45C19.18 27.99 18.555 28.48 18.005 29.025C17.3675 29.665 16.845 30.3625 16.5425 31.25H21.875C22.3723 31.25 22.8492 31.4475 23.2008 31.7992C23.5525 32.1508 23.75 32.6277 23.75 33.125C23.75 33.6223 23.5525 34.0992 23.2008 34.4508C22.8492 34.8025 22.3723 35 21.875 35H14.375C13.8777 35 13.4008 34.8025 13.0492 34.4508C12.6975 34.0992 12.5 33.6223 12.5 33.125C12.5 30.0075 13.81 27.9175 15.36 26.3725C16.1 25.6325 16.905 25.01 17.585 24.4825L17.5925 24.4775C18.3075 23.925 18.8625 23.495 19.305 23.0525C19.985 22.3675 20.2225 21.24 19.92 20.2275C19.6325 19.275 18.995 18.75 18.125 18.75C17.2425 18.75 16.7875 19.0925 16.525 19.3825C16.3714 19.552 16.2464 19.7454 16.155 19.955V19.9625C16.0018 20.4359 15.6669 20.8291 15.2238 21.0555C14.7808 21.282 14.2659 21.3232 13.7925 21.17C13.3191 21.0168 12.9259 20.6819 12.6995 20.2388C12.473 19.7958 12.4318 19.2809 12.585 18.8075L12.6725 18.5675C12.9294 17.9404 13.2931 17.3627 13.7475 16.86H13.75ZM28.125 15C28.6223 15 29.0992 15.1975 29.4508 15.5492C29.8025 15.9008 30 16.3777 30 16.875V23.75H33.75V16.875C33.75 16.3777 33.9475 15.9008 34.2992 15.5492C34.6508 15.1975 35.1277 15 35.625 15C36.1223 15 36.5992 15.1975 36.9508 15.5492C37.3025 15.9008 37.5 16.3777 37.5 16.875V33.05C37.5 33.5473 37.3025 34.0242 36.9508 34.3758C36.5992 34.7275 36.1223 34.925 35.625 34.925C35.1277 34.925 34.6508 34.7275 34.2992 34.3758C33.9475 34.0242 33.75 33.5473 33.75 33.05V27.5H28.125C27.6277 27.5 27.1508 27.3025 26.7992 26.9508C26.4475 26.5992 26.25 26.1223 26.25 25.625V16.875C26.25 16.3777 26.4475 15.9008 26.7992 15.5492C27.1508 15.1975 27.6277 15 28.125 15V15ZM50 25C50 11.1925 38.8075 0 25 0C11.1925 0 0 11.1925 0 25C0 38.8075 11.1925 50 25 50C38.8075 50 50 38.8075 50 25ZM3.75 25C3.75 19.3641 5.98883 13.9591 9.97398 9.97398C13.9591 5.98883 19.3641 3.75 25 3.75C30.6359 3.75 36.0409 5.98883 40.026 9.97398C44.0112 13.9591 46.25 19.3641 46.25 25C46.25 30.6359 44.0112 36.0409 40.026 40.026C36.0409 44.0112 30.6359 46.25 25 46.25C19.3641 46.25 13.9591 44.0112 9.97398 40.026C5.98883 36.0409 3.75 30.6359 3.75 25V25Z" fill="white"/>
</svg>
