<svg width="25" height="25" viewBox="0 0 25 25" fill="none" xmlns="http://www.w3.org/2000/svg">
<path d="M12.5 16.6667C14.7979 16.6667 16.6666 14.798 16.6666 12.5C16.6666 10.2021 14.7979 8.33337 12.5 8.33337C10.2021 8.33337 8.33331 10.2021 8.33331 12.5C8.33331 14.798 10.2021 16.6667 12.5 16.6667ZM12.5 10.4167C13.6291 10.4167 14.5833 11.3709 14.5833 12.5C14.5833 13.6292 13.6291 14.5834 12.5 14.5834C11.3708 14.5834 10.4166 13.6292 10.4166 12.5C10.4166 11.3709 11.3708 10.4167 12.5 10.4167Z" fill="black"/>
<path d="M2.96356 16.8084L4.00523 18.6105C4.55835 19.5657 5.8896 19.924 6.84898 19.3709L7.40002 19.0521C8.00266 19.5262 8.66711 19.9159 9.37502 20.2105V20.8334C9.37502 21.9823 10.3094 22.9167 11.4584 22.9167H13.5417C14.6906 22.9167 15.625 21.9823 15.625 20.8334V20.2105C16.3327 19.9158 16.9971 19.5265 17.6 19.0532L18.1511 19.3719C19.1125 19.924 20.4406 19.5677 20.9958 18.6105L22.0365 16.8094C22.3125 16.331 22.3874 15.7625 22.2446 15.2289C22.1019 14.6953 21.7531 14.2402 21.275 13.9636L20.749 13.6594C20.8608 12.8912 20.8608 12.1109 20.749 11.3427L21.275 11.0386C21.7529 10.7617 22.1015 10.3066 22.2442 9.77312C22.387 9.23961 22.3123 8.67125 22.0365 8.19275L20.9958 6.39171C20.4427 5.43337 19.1125 5.074 18.1511 5.62921L17.6 5.94796C16.9974 5.4739 16.3329 5.0842 15.625 4.78962V4.16671C15.625 3.01775 14.6906 2.08337 13.5417 2.08337H11.4584C10.3094 2.08337 9.37502 3.01775 9.37502 4.16671V4.78962C8.66735 5.08425 8.00296 5.47357 7.40002 5.94692L6.84898 5.62817C5.88648 5.07504 4.55731 5.43337 4.00418 6.39067L2.96356 8.19171C2.6875 8.67014 2.61263 9.23859 2.75541 9.77219C2.89818 10.3058 3.24692 10.7609 3.72502 11.0375L4.25106 11.3417C4.1388 12.1095 4.1388 12.8895 4.25106 13.6573L3.72502 13.9615C3.24706 14.2385 2.89848 14.6938 2.75574 15.2275C2.61299 15.7612 2.68773 16.3297 2.96356 16.8084V16.8084ZM6.42814 13.9355C6.31052 13.466 6.2507 12.984 6.25002 12.5C6.25002 12.0188 6.31043 11.5355 6.4271 11.0646C6.48204 10.8452 6.46397 10.6138 6.37563 10.4055C6.28729 10.1973 6.13348 10.0235 5.93752 9.91046L4.76773 9.23337L5.80731 7.43233L7.00002 8.12192C7.19452 8.23447 7.42029 8.28089 7.64342 8.25422C7.86656 8.22755 8.07502 8.12922 8.23752 7.974C8.94223 7.30374 9.79203 6.80505 10.7209 6.51671C10.9342 6.45157 11.121 6.31965 11.2538 6.14038C11.3866 5.96111 11.4583 5.74395 11.4584 5.52087V4.16671H13.5417V5.52087C13.5418 5.74395 13.6135 5.96111 13.7463 6.14038C13.879 6.31965 14.0658 6.45157 14.2792 6.51671C15.2078 6.80547 16.0575 7.3041 16.7625 7.974C16.9252 8.12892 17.1336 8.22704 17.3567 8.2537C17.5797 8.28036 17.8054 8.23413 18 8.12192L19.1917 7.43337L20.2333 9.23442L19.0625 9.91046C18.8667 10.0236 18.713 10.1974 18.6246 10.4056C18.5363 10.6139 18.5182 10.8452 18.5729 11.0646C18.6896 11.5355 18.75 12.0188 18.75 12.5C18.75 12.9802 18.6896 13.4636 18.5719 13.9355C18.5172 14.155 18.5355 14.3864 18.6241 14.5946C18.7126 14.8029 18.8665 14.9766 19.0625 15.0896L20.2323 15.7657L19.1927 17.5667L18 16.8782C17.8056 16.7654 17.5798 16.7189 17.3566 16.7456C17.1334 16.7723 16.9249 16.8707 16.7625 17.0261C16.0578 17.6963 15.208 18.195 14.2792 18.4834C14.0658 18.5485 13.879 18.6804 13.7463 18.8597C13.6135 19.039 13.5418 19.2561 13.5417 19.4792L13.5438 20.8334H11.4584V19.4792C11.4583 19.2561 11.3866 19.039 11.2538 18.8597C11.121 18.6804 10.9342 18.5485 10.7209 18.4834C9.79221 18.1946 8.9425 17.696 8.23752 17.0261C8.07533 16.8703 7.86674 16.7716 7.6434 16.7451C7.42006 16.7186 7.19417 16.7657 7.00002 16.8792L5.80835 17.5688L4.76668 15.7677L5.93752 15.0896C6.13355 14.9766 6.28747 14.8029 6.37598 14.5946C6.4645 14.3864 6.48281 14.155 6.42814 13.9355V13.9355Z" fill="black"/>
</svg>
