<svg width="50" height="50" viewBox="0 0 50 50" fill="none" xmlns="http://www.w3.org/2000/svg">
<path d="M19.1458 13.2292C14.8958 18 11.9792 24.8542 11.7083 25.5L7.00001 23.4792C5.64585 22.8958 5.31251 21.125 6.35418 20.0833L12.625 13.8125C13.6042 12.8333 15.0208 12.3958 16.3958 12.6667L19.1458 13.2292V13.2292ZM22.25 34.3958C22.875 35.0208 23.7917 35.1875 24.5833 34.8125C27 33.6875 32.1875 31.0417 35.5417 27.6875C45.1042 18.125 45.1875 10.3333 44.625 6.99999C44.5513 6.59054 44.3541 6.21343 44.0599 5.91925C43.7657 5.62507 43.3886 5.42789 42.9792 5.35416C39.6458 4.79166 31.8542 4.87499 22.2917 14.4375C18.9375 17.7917 16.3125 22.9792 15.1667 25.3958C14.7917 26.1875 14.9792 27.125 15.5833 27.7292L22.25 34.3958V34.3958ZM36.7708 30.8542C32 35.1042 25.1458 38.0208 24.5 38.2917L26.5208 43C27.1042 44.3542 28.875 44.6875 29.9167 43.6458L36.1875 37.375C37.1667 36.3958 37.6042 34.9792 37.3333 33.6042L36.7708 30.8542ZM18.625 36.2708C18.827 37.2798 18.7768 38.323 18.4788 39.308C18.1808 40.2929 17.6442 41.1889 16.9167 41.9167C15.3125 43.5208 10.3333 44.7083 7.10418 45.3333C5.66668 45.6042 4.39585 44.3333 4.66668 42.8958C5.29168 39.6667 6.45835 34.6875 8.08335 33.0833C8.81106 32.3558 9.70715 31.8192 10.6921 31.5212C11.677 31.2232 12.7202 31.173 13.7292 31.375C16.1667 31.8333 18.1667 33.8333 18.625 36.2708V36.2708ZM27.0833 18.75C27.0833 16.4583 28.9583 14.5833 31.25 14.5833C33.5417 14.5833 35.4167 16.4583 35.4167 18.75C35.4167 21.0417 33.5417 22.9167 31.25 22.9167C28.9583 22.9167 27.0833 21.0417 27.0833 18.75Z" fill="black"/>
</svg>
