<svg width="146" height="25" viewBox="0 0 146 25" fill="none" xmlns="http://www.w3.org/2000/svg">
<path d="M5.64372 24.1297C5.0406 24.4391 4.35622 23.8969 4.4781 23.2047L5.77497 15.8141L0.270284 10.5704C-0.243779 10.0797 0.0234087 9.18286 0.712471 9.08599L8.3656 7.99849L11.7781 1.23755C12.0859 0.628174 12.9187 0.628174 13.2265 1.23755L16.639 7.99849L24.2922 9.08599C24.9812 9.18286 25.2484 10.0797 24.7328 10.5704L19.2297 15.8141L20.5265 23.2047C20.6484 23.8969 19.964 24.4391 19.3609 24.1297L12.5 20.6047L5.64216 24.1297H5.64372Z" fill="#FECB04"/>
<path d="M35.6437 24.1297C35.0406 24.4391 34.3562 23.8969 34.4781 23.2047L35.775 15.8141L30.2703 10.5704C29.7562 10.0797 30.0234 9.18286 30.7125 9.08599L38.3656 7.99849L41.7781 1.23755C42.0859 0.628174 42.9187 0.628174 43.2265 1.23755L46.639 7.99849L54.2922 9.08599C54.9812 9.18286 55.2484 10.0797 54.7328 10.5704L49.2297 15.8141L50.5265 23.2047C50.6484 23.8969 49.964 24.4391 49.3609 24.1297L42.5 20.6047L35.6422 24.1297H35.6437Z" fill="#FECB04"/>
<path d="M65.6437 24.1297C65.0406 24.4391 64.3562 23.8969 64.4781 23.2047L65.775 15.8141L60.2703 10.5704C59.7562 10.0797 60.0234 9.18286 60.7125 9.08599L68.3656 7.99849L71.7781 1.23755C72.0859 0.628174 72.9187 0.628174 73.2265 1.23755L76.639 7.99849L84.2922 9.08599C84.9812 9.18286 85.2484 10.0797 84.7328 10.5704L79.2297 15.8141L80.5265 23.2047C80.6484 23.8969 79.964 24.4391 79.3609 24.1297L72.5 20.6047L65.6422 24.1297H65.6437Z" fill="#FECB04"/>
<path d="M95.6437 24.1297C95.0406 24.4391 94.3562 23.8969 94.4781 23.2047L95.775 15.8141L90.2703 10.5704C89.7562 10.0797 90.0234 9.18286 90.7125 9.08599L98.3656 7.99849L101.778 1.23755C102.086 0.628174 102.919 0.628174 103.227 1.23755L106.639 7.99849L114.292 9.08599C114.981 9.18286 115.248 10.0797 114.733 10.5704L109.23 15.8141L110.527 23.2047C110.648 23.8969 109.964 24.4391 109.361 24.1297L102.5 20.6047L95.6422 24.1297H95.6437Z" fill="#FECB04"/>
<path d="M128.366 7.99844L131.778 1.2375C131.844 1.10149 131.946 0.986615 132.074 0.905953C132.201 0.825291 132.349 0.782083 132.5 0.78125C132.786 0.78125 133.072 0.932813 133.227 1.2375L136.639 7.99844L144.292 9.08594C144.483 9.11593 144.658 9.2108 144.786 9.35454C144.915 9.49829 144.991 9.68211 145 9.875C145.011 10.0034 144.993 10.1326 144.947 10.253C144.901 10.3734 144.828 10.4819 144.734 10.5703L139.23 15.8141L140.527 23.2047C140.648 23.8969 139.964 24.4391 139.361 24.1297L132.5 20.6047L125.642 24.1297C125.57 24.1669 125.494 24.1933 125.414 24.2078C124.88 24.3016 124.37 23.8109 124.477 23.2047L125.773 15.8141L120.27 10.5703C120.185 10.4894 120.117 10.3917 120.071 10.2834C120.024 10.1751 120.001 10.0584 120.002 9.94063C120.002 9.77412 120.048 9.61085 120.134 9.46875C120.196 9.36573 120.28 9.27785 120.38 9.2116C120.48 9.14534 120.594 9.1024 120.712 9.08594L128.366 7.99844ZM132.5 18.7922C132.626 18.7917 132.75 18.8217 132.862 18.8797L138.622 21.8391L137.537 15.6563C137.512 15.5141 137.522 15.3677 137.566 15.2302C137.61 15.0926 137.687 14.968 137.791 14.8672L142.333 10.5391L136.002 9.63906C135.87 9.61926 135.746 9.56798 135.639 9.48961C135.532 9.41124 135.446 9.30811 135.387 9.18906L132.502 3.47344L132.5 3.47813V18.7906V18.7922Z" fill="#FECB04"/>
</svg>
