<svg width="68" height="68" viewBox="0 0 68 68" fill="none" xmlns="http://www.w3.org/2000/svg">
<path d="M17.7534 50.0051C17.5341 49.7361 17.4106 49.4017 17.4024 49.0547C17.3942 48.7077 17.5017 48.3679 17.7081 48.0888L28.8919 33.0609L22.2237 29.5266C22.0093 29.4202 21.8222 29.266 21.6768 29.0759C21.5315 28.8858 21.4317 28.6648 21.3853 28.43C21.3388 28.1952 21.347 27.9529 21.409 27.7217C21.4711 27.4905 21.5854 27.2767 21.7432 27.0968L35.3976 11.3447C35.6342 11.0744 35.9567 10.8939 36.3107 10.8336C36.6648 10.7733 37.0288 10.8367 37.3416 11.0134L51.1472 18.3308C51.3538 18.4394 51.5335 18.593 51.673 18.7801C51.8125 18.9673 51.9083 19.1833 51.9533 19.4124C51.9992 19.6442 51.992 19.8834 51.9321 20.1121C51.8721 20.3407 51.7612 20.5527 51.6075 20.7322L43.5261 30.2071L50.0838 33.6829C50.3428 33.8195 50.5582 34.0262 50.7054 34.2793C50.8527 34.5324 50.9258 34.8219 50.9165 35.1146C50.8972 35.39 50.8053 35.6554 50.6501 35.8838C50.4949 36.1122 50.2819 36.2953 50.0329 36.4146L19.6459 50.3715C19.4293 50.487 19.1885 50.5499 18.9431 50.555C18.6977 50.5601 18.4545 50.5073 18.2333 50.4009C18.0504 50.2995 17.8877 50.1654 17.7534 50.0051V50.0051ZM38.6112 31.1389L47.958 20.1773L36.9826 14.3599L25.4267 27.6875L33.5859 32.0121L23.8684 45.0408L45.8592 34.9805L38.6112 31.1389Z" fill="#FECB04"/>
</svg>
