<svg width="25" height="25" viewBox="0 0 25 25" fill="none" xmlns="http://www.w3.org/2000/svg">
<path d="M5.94271 3.86462L4.47396 2.38546C1.04167 5.79483 1.04167 8.26567 1.04167 11.4584H2.08334L3.12501 11.3927C3.12501 8.34275 3.12501 6.66254 5.94271 3.86462ZM20.525 2.38546L19.0583 3.86462C21.875 6.66254 21.875 8.34275 21.875 11.4584L23.9583 11.3927C23.9583 8.26567 23.9583 5.79483 20.525 2.38546V2.38546ZM12.5 22.9167C13.1451 22.9175 13.7744 22.7173 14.3005 22.344C14.8266 21.9706 15.2233 21.4426 15.4354 20.8334H9.56459C9.77674 21.4426 10.1734 21.9706 10.6995 22.344C11.2256 22.7173 11.8549 22.9175 12.5 22.9167V22.9167ZM19.7917 15.1938V10.4167C19.7917 7.06567 17.5156 4.24275 14.4323 3.39379C14.1271 2.62504 13.3813 2.08337 12.5 2.08337C11.6188 2.08337 10.8729 2.62504 10.5677 3.39379C7.48334 4.24275 5.20834 7.06567 5.20834 10.4167V15.1938L3.43021 16.9719C3.33329 17.0685 3.25643 17.1833 3.20405 17.3097C3.15167 17.4361 3.12481 17.5716 3.12501 17.7084V18.75C3.12501 19.0263 3.23475 19.2913 3.4301 19.4866C3.62545 19.682 3.8904 19.7917 4.16667 19.7917H20.8333C21.1096 19.7917 21.3746 19.682 21.5699 19.4866C21.7653 19.2913 21.875 19.0263 21.875 18.75V17.7084C21.8752 17.5716 21.8483 17.4361 21.796 17.3097C21.7436 17.1833 21.6667 17.0685 21.5698 16.9719L19.7917 15.1938Z" fill="black"/>
</svg>
