<svg width="50" height="50" viewBox="0 0 50 50" fill="none" xmlns="http://www.w3.org/2000/svg">
<path d="M18.1406 46.7499C17.8209 46.615 17.5552 46.3774 17.3854 46.0747C17.2156 45.7719 17.1515 45.4213 17.2031 45.0781L20.0469 26.5624H12.5C12.2607 26.5689 12.0232 26.5203 11.8057 26.4204C11.5882 26.3204 11.3966 26.1719 11.2456 25.9862C11.0946 25.8005 10.9883 25.5826 10.9349 25.3492C10.8815 25.1159 10.8824 24.8735 10.9375 24.6406L15.625 4.32807C15.7075 3.97849 15.9079 3.66801 16.1925 3.44888C16.4771 3.22974 16.8285 3.11535 17.1875 3.12495H32.8125C33.0459 3.12415 33.2766 3.17567 33.4875 3.27572C33.6984 3.37576 33.8842 3.52179 34.0313 3.70307C34.1804 3.8864 34.286 4.10118 34.3401 4.33122C34.3943 4.56127 34.3955 4.8006 34.3437 5.0312L31.6406 17.1874H39.0625C39.3553 17.1869 39.6425 17.2686 39.8911 17.4233C40.1397 17.578 40.3399 17.7995 40.4688 18.0624C40.5807 18.3149 40.6238 18.5924 40.5936 18.8669C40.5634 19.1414 40.461 19.4029 40.2969 19.6249L19.9844 46.1874C19.8471 46.3909 19.6638 46.5592 19.4493 46.6787C19.2349 46.7981 18.9953 46.8654 18.75 46.8749C18.5409 46.871 18.3344 46.8287 18.1406 46.7499V46.7499ZM27.7344 20.3124L30.8594 6.24995H18.4375L14.4688 23.4374H23.7031L21.2188 39.4999L35.9375 20.3124H27.7344Z" fill="black"/>
</svg>
