<svg width="25" height="25" viewBox="0 0 25 25" fill="none" xmlns="http://www.w3.org/2000/svg">
<path d="M7.5 2.5C6.83696 2.5 6.20107 2.76339 5.73223 3.23223C5.26339 3.70107 5 4.33696 5 5V20C5 20.663 5.26339 21.2989 5.73223 21.7678C6.20107 22.2366 6.83696 22.5 7.5 22.5H12.8212C12.5029 22.1144 12.2275 21.6953 12 21.25H7.5C7.16848 21.25 6.85054 21.1183 6.61612 20.8839C6.3817 20.6495 6.25 20.3315 6.25 20V5C6.25 4.66848 6.3817 4.35054 6.61612 4.11612C6.85054 3.8817 7.16848 3.75 7.5 3.75H17.5C17.8315 3.75 18.1495 3.8817 18.3839 4.11612C18.6183 4.35054 18.75 4.66848 18.75 5V11.2775C19.1729 11.3158 19.5914 11.3932 20 11.5087V5C20 4.33696 19.7366 3.70107 19.2678 3.23223C18.7989 2.76339 18.163 2.5 17.5 2.5H7.5ZM10 12.5C10 12.8315 9.8683 13.1495 9.63388 13.3839C9.39946 13.6183 9.08152 13.75 8.75 13.75C8.41848 13.75 8.10054 13.6183 7.86612 13.3839C7.6317 13.1495 7.5 12.8315 7.5 12.5C7.5 12.1685 7.6317 11.8505 7.86612 11.6161C8.10054 11.3817 8.41848 11.25 8.75 11.25C9.08152 11.25 9.39946 11.3817 9.63388 11.6161C9.8683 11.8505 10 12.1685 10 12.5V12.5ZM18.125 23.75C19.6168 23.75 21.0476 23.1574 22.1025 22.1025C23.1574 21.0476 23.75 19.6168 23.75 18.125C23.75 16.6332 23.1574 15.2024 22.1025 14.1475C21.0476 13.0926 19.6168 12.5 18.125 12.5C16.6332 12.5 15.2024 13.0926 14.1475 14.1475C13.0926 15.2024 12.5 16.6332 12.5 18.125C12.5 19.6168 13.0926 21.0476 14.1475 22.1025C15.2024 23.1574 16.6332 23.75 18.125 23.75V23.75ZM18.5675 21.0675C18.4501 21.1849 18.291 21.2508 18.125 21.2508C17.959 21.2508 17.7999 21.1849 17.6825 21.0675C17.5651 20.9501 17.4992 20.791 17.4992 20.625C17.4992 20.459 17.5651 20.2999 17.6825 20.1825L19.1163 18.75H15.625C15.4592 18.75 15.3003 18.6842 15.1831 18.5669C15.0658 18.4497 15 18.2908 15 18.125C15 17.9592 15.0658 17.8003 15.1831 17.6831C15.3003 17.5658 15.4592 17.5 15.625 17.5H19.1163L17.6825 16.0675C17.5651 15.9501 17.4992 15.791 17.4992 15.625C17.4992 15.459 17.5651 15.2999 17.6825 15.1825C17.7999 15.0651 17.959 14.9992 18.125 14.9992C18.291 14.9992 18.4501 15.0651 18.5675 15.1825L21.0675 17.6825C21.1837 17.799 21.2493 17.9567 21.25 18.1212V18.1288C21.249 18.2917 21.1844 18.4478 21.07 18.5637L21.0663 18.5675L18.5662 21.0675H18.5675Z" fill="black"/>
</svg>
