<svg width="25" height="25" viewBox="0 0 25 25" fill="none" xmlns="http://www.w3.org/2000/svg">
<g clip-path="url(#clip0_625_5082)">
<path d="M20.9594 19.1968C20.9594 19.4921 20.7601 19.7046 20.4734 19.7046C20.1781 19.7046 19.9875 19.4789 19.9875 19.1968C19.9875 18.9148 20.1781 18.689 20.4734 18.689C20.7601 18.689 20.9594 18.9148 20.9594 19.1968ZM7.46952 18.689C7.16093 18.689 6.98358 18.9148 6.98358 19.1968C6.98358 19.4789 7.16171 19.7046 7.46952 19.7046C7.75155 19.7046 7.94218 19.4921 7.94218 19.1968C7.93749 18.9148 7.75155 18.689 7.46952 18.689ZM12.5695 18.6765C12.3351 18.6765 12.1914 18.8281 12.157 19.0539H12.9859C12.9469 18.8062 12.7953 18.6765 12.5695 18.6765ZM17.2484 18.689C16.9531 18.689 16.7758 18.9148 16.7758 19.1968C16.7758 19.4789 16.9539 19.7046 17.2484 19.7046C17.5437 19.7046 17.7344 19.4921 17.7344 19.1968C17.7344 18.9148 17.543 18.689 17.2484 18.689ZM21.8445 19.8218C21.8445 19.8351 21.8578 19.8437 21.8578 19.8695C21.8578 19.8828 21.8445 19.8914 21.8445 19.9171C21.8312 19.9304 21.8312 19.939 21.8226 19.9515C21.8094 19.9648 21.8008 19.9734 21.775 19.9734C21.7617 19.9867 21.7531 19.9867 21.7273 19.9867C21.7141 19.9867 21.7055 19.9867 21.6797 19.9734C21.6664 19.9734 21.6578 19.9601 21.6453 19.9515C21.632 19.9382 21.6234 19.9296 21.6234 19.9171C21.6101 19.8953 21.6101 19.8828 21.6101 19.8695C21.6101 19.8476 21.6101 19.8351 21.6234 19.8218C21.6234 19.8 21.6367 19.7875 21.6453 19.7742C21.6586 19.7609 21.6672 19.7609 21.6797 19.7523C21.7015 19.739 21.7141 19.739 21.7273 19.739C21.7492 19.739 21.7617 19.739 21.775 19.7523C21.7969 19.7648 21.8094 19.7648 21.8226 19.7742C21.8359 19.7835 21.8312 19.8 21.8445 19.8218ZM21.7492 19.8828C21.7711 19.8828 21.7711 19.8695 21.7836 19.8695C21.7969 19.8562 21.7969 19.8476 21.7969 19.8351C21.7969 19.8226 21.7969 19.8132 21.7836 19.8007C21.7711 19.8007 21.7617 19.7875 21.7359 19.7875H21.6664V19.939H21.7008V19.8781H21.7141L21.7617 19.939H21.7961L21.7492 19.8828ZM25 4.90464V20.1828C24.9998 20.7353 24.7802 21.2652 24.3895 21.6559C23.9988 22.0466 23.4689 22.2661 22.9164 22.2664H2.0828C1.53026 22.2661 1.00041 22.0466 0.609706 21.6559C0.219001 21.2652 -0.000586397 20.7353 -0.000793457 20.1828V4.90464C-0.000586397 4.3521 0.219001 3.82225 0.609706 3.43154C1.00041 3.04084 1.53026 2.82125 2.0828 2.82104H22.9164C23.4689 2.82125 23.9988 3.04084 24.3895 3.43154C24.7802 3.82225 24.9998 4.3521 25 4.90464V4.90464ZM2.77811 10.9632C2.77811 14.2835 5.47343 16.9742 8.78905 16.9742C9.96986 16.9708 11.1239 16.6224 12.1094 15.9718C8.9453 13.3984 8.96718 8.54136 12.1094 5.96714C11.1249 5.31451 9.97019 4.96592 8.78905 4.96479C5.47343 4.96089 2.77811 7.65542 2.77811 10.9632V10.9632ZM12.5 15.6859C15.5601 13.2984 15.5469 8.64604 12.5 6.24604C9.45311 8.64604 9.43983 13.3031 12.5 15.6859ZM6.32343 18.9976C6.32343 18.6203 6.07577 18.3726 5.68514 18.3593C5.48514 18.3593 5.27264 18.4203 5.12968 18.6414C5.02577 18.4632 4.84764 18.3593 4.59999 18.3593C4.51 18.3579 4.42103 18.3786 4.34083 18.4194C4.26063 18.4603 4.19163 18.5201 4.13983 18.5937V18.4031H3.78436V19.996H4.13983C4.13983 19.1757 4.03124 18.6851 4.53046 18.6851C4.97343 18.6851 4.88671 19.1281 4.88671 19.996H5.22968C5.22968 19.2015 5.12108 18.6851 5.6203 18.6851C6.06327 18.6851 5.97577 19.1195 5.97577 19.996H6.33202V18.9976H6.32343ZM8.27264 18.4031H7.92968V18.5937C7.86897 18.518 7.7915 18.4574 7.70337 18.4167C7.61525 18.376 7.51888 18.3564 7.42186 18.3593C6.97499 18.3593 6.63202 18.7156 6.63202 19.1968C6.63202 19.6828 6.97499 20.0343 7.42186 20.0343C7.64764 20.0343 7.81249 19.9515 7.92968 19.8V20H8.27264V18.4031ZM10.0305 19.514C10.0305 18.8632 9.03671 19.1578 9.03671 18.8539C9.03671 18.6062 9.55311 18.646 9.83983 18.8062L9.9828 18.5242C9.57499 18.2593 8.67186 18.264 8.67186 18.8804C8.67186 19.5007 9.66561 19.2406 9.66561 19.5312C9.66561 19.8046 9.07968 19.7828 8.76718 19.5656L8.61561 19.839C9.10155 20.1687 10.0305 20.0992 10.0305 19.5132V19.514ZM11.5672 19.9171L11.4719 19.6218C11.307 19.7125 10.9422 19.8125 10.9422 19.4437V18.7234H11.5109V18.4023H10.9422V17.9164H10.5859V18.4023H10.2562V18.7195H10.5859V19.4445C10.5859 20.2085 11.3367 20.0695 11.5672 19.9171V19.9171ZM12.1437 19.3359H13.3375C13.3375 18.6328 13.0164 18.3546 12.582 18.3546C12.1219 18.3546 11.7922 18.6976 11.7922 19.1921C11.7922 20.082 12.7734 20.2296 13.2594 19.8085L13.0945 19.5484C12.7562 19.8265 12.2437 19.8 12.1437 19.3359V19.3359ZM14.7094 18.4031C14.5101 18.3164 14.2062 18.325 14.05 18.5937V18.4031H13.6937V19.996H14.05V19.0976C14.05 18.5937 14.4625 18.6593 14.6055 18.7328L14.7094 18.4031ZM15.1695 19.1968C15.1695 18.7015 15.6734 18.5414 16.068 18.832L16.2328 18.55C15.7289 18.1554 14.8133 18.3718 14.8133 19.2007C14.8133 20.0601 15.7851 20.2335 16.2328 19.8515L16.068 19.5695C15.6687 19.8515 15.1695 19.6828 15.1695 19.196V19.1968ZM18.064 18.4031H17.7078V18.5937C17.3476 18.1164 16.4101 18.3859 16.4101 19.1968C16.4101 20.0304 17.382 20.2687 17.7078 19.8V20H18.064V18.4031ZM19.5265 18.4031C19.4226 18.3507 19.0492 18.2773 18.8672 18.5937V18.4031H18.5242V19.996H18.8672V19.0976C18.8672 18.6203 19.2578 18.6507 19.4226 18.7328L19.5265 18.4031ZM21.2758 17.7562H20.9328V18.5937C20.5766 18.121 19.6351 18.3726 19.6351 19.1968C19.6351 20.039 20.6117 20.264 20.9328 19.8V20H21.2758V17.7562ZM21.6062 14.4968V14.6968H21.6406V14.4968H21.7226V14.4625H21.5226V14.4968H21.6062ZM21.8922 19.8695C21.8922 19.8476 21.8922 19.8218 21.8797 19.8C21.8664 19.7867 21.8578 19.7656 21.8453 19.7523C21.8328 19.739 21.8109 19.7304 21.7976 19.7179C21.7758 19.7179 21.75 19.7046 21.7281 19.7046C21.7148 19.7046 21.6937 19.7179 21.6672 19.7179C21.65 19.7275 21.6341 19.7391 21.6195 19.7523C21.5976 19.7648 21.5851 19.7867 21.5851 19.8C21.5719 19.8218 21.5719 19.8476 21.5719 19.8695C21.5719 19.8828 21.5719 19.9039 21.5851 19.9304C21.5851 19.9437 21.5984 19.9648 21.6195 19.9781C21.6327 19.9929 21.649 20.0046 21.6672 20.0125C21.689 20.025 21.7148 20.025 21.7281 20.025C21.75 20.025 21.7758 20.025 21.7976 20.0125C21.8109 19.9992 21.832 19.9906 21.8453 19.9781C21.8586 19.9656 21.8672 19.9437 21.8797 19.9304C21.8922 19.9046 21.8922 19.8828 21.8922 19.8695ZM22.0312 14.4578H21.9703L21.9008 14.6093L21.8312 14.4578H21.7703V14.6921H21.8047V14.514L21.8742 14.6656H21.9219L21.9828 14.514V14.6921H22.0305L22.0312 14.4578ZM22.2219 10.9632C22.2219 7.65542 19.5265 4.96089 16.2109 4.96089C15.0301 4.96385 13.8759 5.31228 12.8906 5.96323C16.0203 8.53745 16.068 13.407 12.8906 15.9679C13.8756 16.6194 15.03 16.9679 16.2109 16.9703C19.5265 16.975 22.2219 14.2835 22.2219 10.9632Z" fill="white"/>
</g>
<defs>
<clipPath id="clip0_625_5082">
<rect width="25" height="25" fill="white"/>
</clipPath>
</defs>
</svg>
