<svg width="25" height="25" viewBox="0 0 25 25" fill="none" xmlns="http://www.w3.org/2000/svg">
<g clip-path="url(#clip0_625_5088)">
<path d="M8.08593 12.5953C8.08593 13.125 7.66483 13.5281 7.13124 13.5281C6.73202 13.5281 6.43671 13.3023 6.43671 12.8773C6.43671 12.3477 6.84921 11.9227 7.37889 11.9227C7.7828 11.9227 8.08671 12.1703 8.08671 12.5953H8.08593ZM3.49374 10.4906H3.28983C3.22499 10.4906 3.15936 10.5344 3.15077 10.6078L2.96405 11.7672L3.3203 11.7539C3.79764 11.7539 4.16639 11.6891 4.25311 11.1375C4.35311 10.5555 3.98436 10.4906 3.49374 10.4906V10.4906ZM15.8203 10.4906H15.625C15.5469 10.4906 15.4945 10.5344 15.4859 10.6078L15.3039 11.7672L15.6508 11.7539C16.2148 11.7539 16.6055 11.6234 16.6055 10.9727C16.6008 10.5125 16.1891 10.4906 15.8195 10.4906H15.8203ZM25 4.86094V20.1391C24.9998 20.6916 24.7802 21.2215 24.3895 21.6122C23.9988 22.0029 23.4689 22.2224 22.9164 22.2227H2.0828C1.53026 22.2224 1.00041 22.0029 0.609706 21.6122C0.219001 21.2215 -0.000586397 20.6916 -0.000793457 20.1391V4.86094C-0.000586397 4.3084 0.219001 3.77855 0.609706 3.38784C1.00041 2.99714 1.53026 2.77755 2.0828 2.77734H22.9164C23.4689 2.77755 23.9988 2.99714 24.3895 3.38784C24.7802 3.77855 24.9998 4.3084 25 4.86094V4.86094ZM5.56874 10.7375C5.56874 9.82578 4.86561 9.52187 4.06249 9.52187H2.32655C2.27047 9.5223 2.2165 9.54331 2.17488 9.58089C2.13327 9.61848 2.10689 9.67004 2.10077 9.72578L1.38905 14.157C1.37577 14.2437 1.44139 14.3305 1.52811 14.3305H2.35311C2.4703 14.3305 2.57889 14.2047 2.59218 14.0828L2.78749 12.9281C2.83124 12.6156 3.36014 12.7242 3.56874 12.7242C4.81014 12.7242 5.56952 11.9867 5.56952 10.7367L5.56874 10.7375ZM9.22343 11.1195H8.39843C8.23358 11.1195 8.22499 11.3586 8.21639 11.4758C7.96483 11.107 7.59999 11.0414 7.18749 11.0414C6.12421 11.0414 5.31249 11.9742 5.31249 13.0031C5.31249 13.8492 5.84218 14.4008 6.68827 14.4008C7.07889 14.4008 7.56483 14.1883 7.83827 13.8844C7.81302 13.9722 7.79833 14.0626 7.79452 14.1539C7.79452 14.2539 7.83827 14.3273 7.93358 14.3273H8.68046C8.79764 14.3273 8.89764 14.2016 8.91952 14.0797L9.36249 11.2891C9.37577 11.2062 9.31014 11.1195 9.22343 11.1195V11.1195ZM10.9812 15.3688L13.7461 11.3492C13.768 11.3273 13.768 11.3055 13.768 11.2758C13.768 11.2023 13.7031 11.1242 13.6289 11.1242H12.7953C12.7565 11.1257 12.7186 11.1364 12.6847 11.1552C12.6508 11.1741 12.6218 11.2007 12.6 11.2328L11.45 12.9258L10.9726 11.2984C10.9547 11.2489 10.9223 11.206 10.8797 11.175C10.8371 11.1441 10.7862 11.1267 10.7336 11.125H9.92186C9.84764 11.125 9.7828 11.2031 9.7828 11.2766C9.7828 11.3289 10.6289 13.7422 10.7031 13.9719C10.5859 14.1367 9.81327 15.2133 9.81327 15.3437C9.81327 15.4219 9.87811 15.4828 9.95233 15.4828H10.7859C10.8249 15.4802 10.8628 15.4688 10.8967 15.4493C10.9305 15.4298 10.9595 15.4028 10.9812 15.3703V15.3688ZM17.8953 10.7375C17.8953 9.82578 17.1922 9.52187 16.3891 9.52187H14.6656C14.6079 9.52141 14.552 9.54178 14.508 9.57923C14.4641 9.61668 14.4352 9.66872 14.4265 9.72578L13.7234 14.1531C13.7148 14.2398 13.7797 14.3266 13.8625 14.3266H14.7523C14.839 14.3266 14.9039 14.2617 14.9258 14.1875L15.1211 12.9289C15.1648 12.6164 15.6945 12.725 15.9023 12.725C17.1351 12.725 17.8945 11.9875 17.8945 10.7375H17.8953ZM21.5492 11.1195H20.7242C20.5594 11.1195 20.5508 11.3586 20.5375 11.4758C20.2984 11.107 19.9297 11.0414 19.5086 11.0414C18.4453 11.0414 17.6336 11.9742 17.6336 13.0031C17.6336 13.8492 18.1633 14.4008 19.0094 14.4008C19.4133 14.4008 19.8992 14.1883 20.1594 13.8844C20.1461 13.9492 20.1156 14.0883 20.1156 14.1539C20.1156 14.2539 20.1594 14.3273 20.2547 14.3273H21.0055C21.1226 14.3273 21.2226 14.2016 21.2445 14.0797L21.6875 11.2891C21.7008 11.2062 21.6351 11.1195 21.5484 11.1195H21.5492ZM23.6109 9.67422C23.6109 9.5875 23.5461 9.52266 23.4719 9.52266H22.6687C22.6039 9.52266 22.5383 9.575 22.5297 9.63984L21.8265 14.1539L21.8141 14.1758C21.8141 14.2539 21.8789 14.3273 21.9656 14.3273H22.682C22.7906 14.3273 22.8992 14.2016 22.9078 14.0797L23.6109 9.6875V9.67422ZM19.7047 11.9227C19.175 11.9227 18.7625 12.3437 18.7625 12.8773C18.7625 13.2984 19.0664 13.5281 19.4656 13.5281C19.9867 13.5281 20.4078 13.1289 20.4078 12.5953C20.4125 12.1703 20.1086 11.9227 19.7047 11.9227V11.9227Z" fill="white"/>
</g>
<defs>
<clipPath id="clip0_625_5088">
<rect width="25" height="25" fill="white"/>
</clipPath>
</defs>
</svg>
