<svg width="25" height="25" viewBox="0 0 25 25" fill="none" xmlns="http://www.w3.org/2000/svg">
<g clip-path="url(#clip0_625_5076)">
<path d="M20.4039 11.4281C20.4039 11.4281 20.7336 13.043 20.8078 13.3812H19.3586L20.0531 11.493C20.0445 11.5063 20.1961 11.0977 20.2828 10.8461L20.4039 11.4281ZM25 4.86094V20.1391C24.9998 20.6916 24.7802 21.2215 24.3895 21.6122C23.9988 22.0029 23.4689 22.2224 22.9164 22.2227H2.0828C1.53026 22.2224 1.00041 22.0029 0.609706 21.6122C0.219001 21.2215 -0.000586397 20.6916 -0.000793457 20.1391V4.86094C-0.000586397 4.3084 0.219001 3.77855 0.609706 3.38784C1.00041 2.99714 1.53026 2.77755 2.0828 2.77734H22.9164C23.4689 2.77755 23.9988 2.99714 24.3895 3.38784C24.7802 3.77855 24.9998 4.3084 25 4.86094V4.86094ZM6.61874 15.7641L9.36171 9.02812H7.51718L5.81171 13.6289L5.62499 12.6961L5.01718 9.59688C4.91718 9.16719 4.60936 9.04531 4.22733 9.02812H1.41952L1.38905 9.1625C2.03208 9.32025 2.64889 9.57024 3.2203 9.90469L4.77421 15.7641H6.61874ZM10.7164 15.7727L11.8101 9.02812H10.0656L8.97655 15.7727H10.7164ZM16.7883 13.568C16.7969 12.8 16.3281 12.2141 15.3258 11.732C14.7141 11.4234 14.3406 11.2156 14.3406 10.8984C14.3492 10.6117 14.6578 10.3164 15.343 10.3164C15.7892 10.3038 16.2326 10.3914 16.6406 10.5727L16.7969 10.6461L17.0359 9.1875C16.5372 8.99657 16.0075 8.89937 15.4734 8.90078C13.75 8.90078 12.539 9.82109 12.5305 11.1312C12.5172 12.0992 13.3984 12.6375 14.0586 12.9625C14.7312 13.2922 14.9617 13.5094 14.9617 13.8C14.9531 14.2516 14.4148 14.4594 13.9156 14.4594C13.2211 14.4594 12.8476 14.3508 12.2789 14.0992L12.0492 13.9906L11.8062 15.5055C12.2141 15.6922 12.9695 15.857 13.7508 15.8656C15.582 15.8695 16.7758 14.9625 16.789 13.5656L16.7883 13.568ZM22.9164 15.7727L21.5101 9.02812H20.1601C19.7437 9.02812 19.4266 9.15 19.2484 9.58828L16.657 15.7734H18.4883C18.4883 15.7734 18.7875 14.9398 18.8531 14.7625H21.093C21.1453 15.0016 21.3016 15.7734 21.3016 15.7734L22.9164 15.7727Z" fill="white"/>
</g>
<defs>
<clipPath id="clip0_625_5076">
<rect width="25" height="25" fill="white"/>
</clipPath>
</defs>
</svg>
