<svg width="25" height="25" viewBox="0 0 25 25" fill="none" xmlns="http://www.w3.org/2000/svg">
<path d="M9.3125 19.4843C10.6321 19.4926 11.9403 19.2388 13.1611 18.7377C14.3819 18.2365 15.491 17.4979 16.4242 16.5648C17.3573 15.6316 18.0959 14.5225 18.5971 13.3017C19.0983 12.0809 19.3521 10.7727 19.3438 9.45309V8.99216C20.0278 8.49097 20.6199 7.8751 21.0938 7.17184C20.4496 7.45356 19.7681 7.6404 19.0703 7.72653C19.8101 7.28573 20.3652 6.5919 20.6328 5.7734C19.9434 6.18703 19.1874 6.47781 18.3984 6.63278C17.8671 6.06666 17.1641 5.69142 16.398 5.56511C15.632 5.43881 14.8457 5.56848 14.1607 5.93407C13.4758 6.29966 12.9305 6.88079 12.6091 7.58753C12.2877 8.29427 12.2082 9.08723 12.3828 9.84372C10.9813 9.77492 9.60993 9.4117 8.35809 8.77771C7.10625 8.14371 6.00198 7.25316 5.11719 6.16403C4.67103 6.93839 4.5358 7.85335 4.73887 8.72366C4.94195 9.59397 5.46815 10.3546 6.21094 10.8515C5.66298 10.8304 5.1277 10.6805 4.64844 10.414V10.4531C4.64357 11.2623 4.91619 12.0488 5.42086 12.6814C5.92554 13.314 6.63178 13.7546 7.42188 13.9297C6.91222 14.0667 6.37835 14.0881 5.85938 13.9922C6.08811 14.6823 6.52475 15.2848 7.10941 15.717C7.69407 16.1492 8.39812 16.3899 9.125 16.4062C7.8822 17.4066 6.33757 17.9573 4.74219 17.9687C4.46246 17.9606 4.1834 17.9371 3.90625 17.8984C5.52106 18.9272 7.39782 19.4696 9.3125 19.4609" fill="white"/>
</svg>
