<svg width="79" height="79" viewBox="0 0 79 79" fill="none" xmlns="http://www.w3.org/2000/svg">
<path d="M69.293 79C67.7985 79 66.3427 78.6914 64.9256 78.0742C63.5084 77.457 62.4649 76.8656 61.795 76.2998C61.125 75.734 60.3263 74.9883 59.3987 74.0625C56.1006 77.3542 51.1534 79 44.5572 79H7.45346C6.78353 79 6.20379 78.7557 5.71422 78.2671C5.22466 77.7785 4.97988 77.1999 4.97988 76.5312C4.97988 75.8626 5.22466 75.284 5.71422 74.7954C6.20379 74.3068 6.78353 74.0625 7.45346 74.0625C8.07186 74.0625 8.8062 73.4839 9.65649 72.3267C10.5068 71.1694 11.3184 69.7036 12.0914 67.9292C12.8644 66.1548 13.5215 64.0332 14.0626 61.5645C14.6037 59.0957 14.8742 56.6784 14.8742 54.3125C14.8742 52.9753 14.7067 51.8438 14.3718 50.918C14.0368 49.9922 13.6245 49.195 13.135 48.5264C12.6454 47.8577 12.1558 47.1248 11.6663 46.3276C11.1767 45.5304 10.7645 44.3475 10.4295 42.7788C10.0945 41.2101 9.92704 39.2943 9.92704 37.0312C9.92704 35.694 10.0945 34.6011 10.4295 33.7524C10.7645 32.9038 11.1767 32.2609 11.6663 31.8237C12.1558 31.3866 12.6454 30.9365 13.135 30.4736C13.6245 30.0107 14.0368 29.3035 14.3718 28.3521C14.7067 27.4006 14.8742 26.179 14.8742 24.6875C14.8742 21.3958 13.2252 19.75 9.92704 19.75C7.60806 19.75 5.37926 18.8628 3.24064 17.0884C1.10202 15.314 0.0327148 13.7324 0.0327148 12.3438C0.0327148 11.1608 0.586694 10.0422 1.69465 8.98779C2.80261 7.93343 3.89769 7.40625 4.97988 7.40625C5.85594 7.40625 6.66758 7.14909 7.41481 6.63477C8.16204 6.12044 8.87062 5.50326 9.54054 4.7832C10.2105 4.06315 10.9448 3.3431 11.7436 2.62305C12.5423 1.90299 13.6245 1.28581 14.9902 0.771484C16.3558 0.257161 17.9662 0 19.8214 0C22.2434 0 24.2146 0.282878 25.7348 0.848633C27.255 1.41439 28.3887 2.1473 29.136 3.04736C29.8832 3.94743 30.4887 5.20752 30.9525 6.82764C31.4163 8.44775 31.7384 10.055 31.9187 11.6494C32.0991 13.2438 32.4212 15.2754 32.885 17.7441C33.3488 20.2129 33.9414 22.5273 34.6629 24.6875C35.642 27.6191 37.9481 31.3608 41.5812 35.9126C45.2142 40.4644 47.8553 43.306 49.5043 44.4375C56.1006 48.8092 59.3987 55.3926 59.3987 64.1875C59.3987 66.7077 60.8674 68.9836 63.8047 71.0151C66.7421 73.0467 70.2206 74.0625 74.2402 74.0625C75.58 74.0625 77.1518 73.8053 78.9554 73.291C78.4916 75.0911 77.3579 76.4927 75.5543 77.4956C73.7506 78.4985 71.6635 79 69.293 79ZM24.7685 54.3125C24.6139 55.1354 24.4078 56.2026 24.1501 57.5142C23.8925 58.8257 23.3385 60.8187 22.4882 63.4932C21.6379 66.1676 20.749 68.0449 19.8214 69.125H29.7157C29.7157 66.9134 29.458 64.9976 28.9427 63.3774C28.4274 61.7573 27.8605 60.5872 27.2421 59.8672C26.6237 59.1471 26.0569 58.3114 25.5415 57.3599C25.0262 56.4084 24.7685 55.3926 24.7685 54.3125Z" fill="white"/>
</svg>
