<svg width="44" height="40" viewBox="0 0 44 40" fill="none" xmlns="http://www.w3.org/2000/svg">
<path d="M32.0782 3.375C33.2158 3.37404 34.3422 3.6002 35.3913 4.04023C36.4404 4.48025 37.391 5.12528 38.1876 5.9375C39.8289 7.60372 40.7488 9.84869 40.7488 12.1875C40.7488 14.5263 39.8289 16.7713 38.1876 18.4375L22.0001 34.8281L5.81258 18.4375C4.1713 16.7713 3.25131 14.5263 3.25131 12.1875C3.25131 9.84869 4.1713 7.60372 5.81258 5.9375C6.60959 5.12586 7.56035 4.48117 8.60931 4.04109C9.65827 3.601 10.7844 3.37433 11.922 3.37433C13.0595 3.37433 14.1856 3.601 15.2346 4.04109C16.2836 4.48117 17.2343 5.12586 18.0313 5.9375L22.0001 10L25.9532 5.96875C26.7473 5.14685 27.6991 4.49354 28.7515 4.04788C29.8039 3.60222 30.9353 3.37336 32.0782 3.375V3.375ZM32.0782 0.250004C30.5245 0.248687 28.9861 0.55759 27.5534 1.1586C26.1206 1.75961 24.8223 2.64063 23.7345 3.75L22.0001 5.5L20.2657 3.75C19.1766 2.64263 17.8779 1.76314 16.4454 1.1628C15.0129 0.56246 13.4752 0.253277 11.922 0.253277C10.3687 0.253277 8.83104 0.56246 7.39853 1.1628C5.96602 1.76314 4.66734 2.64263 3.5782 3.75C1.36239 6.00567 0.12085 9.04119 0.12085 12.2031C0.12085 15.3651 1.36239 18.4006 3.5782 20.6563L22.0001 39.3125L40.422 20.6563C42.6378 18.4006 43.8793 15.3651 43.8793 12.2031C43.8793 9.04119 42.6378 6.00567 40.422 3.75C39.3331 2.64204 38.0345 1.76195 36.602 1.16104C35.1695 0.560128 33.6317 0.250431 32.0782 0.250004V0.250004Z" fill="#297373"/>
</svg>
