<svg width="79" height="79" viewBox="0 0 79 79" fill="none" xmlns="http://www.w3.org/2000/svg">
<path d="M27.2411 39.5C27.243 33.6466 25.6949 27.897 22.7542 22.8359L21.5784 20.79C24.043 20.2034 26.5543 19.8343 29.0834 19.6867C32.4687 17.0791 37.5142 13.9855 43.3312 13.0011L46.9062 12.3438L44.8433 21.8886C51.2729 24.0703 56.9448 28.5017 60.6988 31.5506C61.4251 30.9427 62.1852 30.3487 62.9794 29.7685C69.1065 25.2939 75.7243 24.8619 76.002 24.8464L79 24.6875L78.588 27.667C78.5433 27.9756 77.5404 34.5687 73.7045 39.4738C77.5404 44.3804 78.5371 50.9689 78.588 51.2821L79 54.3125L76.002 54.1027C75.7243 54.0872 69.1065 53.6567 62.9794 49.1806C62.1996 48.6117 61.4508 48.027 60.7328 47.4262C56.9726 50.4859 51.2991 54.9251 44.8618 57.1068L46.9062 66.6562L43.3312 66.0051C37.5466 65.0269 32.5181 61.9317 29.1359 59.321C26.5715 59.1727 24.025 58.7994 21.526 58.2054L22.7464 56.1718C25.6906 51.1089 27.2414 45.3567 27.2411 39.5Z" fill="white"/>
<path d="M1.91481 34.2153C2.81745 32.6909 4.46688 30.3733 7.19022 28.0002C10.0252 25.5588 13.2619 23.6272 16.7566 22.2913L18.4801 25.3047C20.9821 29.613 22.3011 34.506 22.3036 39.4881C22.306 44.4702 20.9918 49.3645 18.494 53.6752L16.681 56.6948C13.2227 55.3752 10.017 53.4707 7.2041 51.0645C2.30672 46.8245 -1.52588e-05 41.5058 -1.52588e-05 39.5C-1.52588e-05 37.6006 1.23436 35.3741 1.91481 34.2153ZM14.8125 39.5C15.3008 39.5 15.7781 39.3552 16.184 39.0839C16.59 38.8127 16.9065 38.4271 17.0933 37.976C17.2802 37.5249 17.3291 37.0285 17.2338 36.5496C17.1385 36.0707 16.9034 35.6308 16.5582 35.2856C16.2129 34.9403 15.773 34.7052 15.2941 34.6099C14.8152 34.5147 14.3188 34.5636 13.8677 34.7504C13.4166 34.9373 13.0311 35.2537 12.7598 35.6597C12.4885 36.0657 12.3437 36.543 12.3437 37.0312C12.3437 37.686 12.6038 38.3139 13.0668 38.7769C13.5298 39.2399 14.1577 39.5 14.8125 39.5Z" fill="white"/>
</svg>
