<svg width="25" height="25" viewBox="0 0 25 25" fill="none" xmlns="http://www.w3.org/2000/svg">
<path d="M4.16667 6.66796C4.14101 7.54899 4.33902 8.42503 4.74873 9.24309C5.15844 10.0611 5.77132 10.8042 6.55032 11.4274C7.32931 12.0505 8.25822 12.5408 9.28087 12.8685C10.3035 13.1963 11.3986 13.3547 12.5 13.3342C13.6014 13.3547 14.6965 13.1963 15.7191 12.8685C16.7418 12.5408 17.6707 12.0505 18.4497 11.4274C19.2287 10.8042 19.8416 10.0611 20.2513 9.24309C20.661 8.42503 20.859 7.54899 20.8333 6.66796C20.859 5.78693 20.661 4.9109 20.2513 4.09284C19.8416 3.27478 19.2287 2.5317 18.4497 1.90855C17.6707 1.2854 16.7418 0.795128 15.7191 0.467386C14.6965 0.139644 13.6014 -0.0187565 12.5 0.00176751C11.3986 -0.0187565 10.3035 0.139644 9.28087 0.467386C8.25822 0.795128 7.32931 1.2854 6.55032 1.90855C5.77132 2.5317 5.15844 3.27478 4.74873 4.09284C4.33902 4.9109 4.14101 5.78693 4.16667 6.66796ZM16.6667 6.66796C16.6935 7.11135 16.604 7.55431 16.4041 7.96841C16.2042 8.38251 15.8982 8.75858 15.5058 9.07246C15.1135 9.38635 14.6433 9.63111 14.1257 9.79103C13.608 9.95095 13.0543 10.0225 12.5 10.0011C11.9457 10.0225 11.392 9.95095 10.8743 9.79103C10.3567 9.63111 9.88655 9.38635 9.49416 9.07246C9.10178 8.75858 8.7958 8.38251 8.59588 7.96841C8.39597 7.55431 8.30654 7.11135 8.33333 6.66796C8.30654 6.22458 8.39597 5.78161 8.59588 5.36751C8.7958 4.95342 9.10178 4.57735 9.49416 4.26346C9.88655 3.94958 10.3567 3.70481 10.8743 3.54489C11.392 3.38497 11.9457 3.31343 12.5 3.33486C13.0543 3.31343 13.608 3.38497 14.1257 3.54489C14.6433 3.70481 15.1135 3.94958 15.5058 4.26346C15.8982 4.57735 16.2042 4.95342 16.4041 5.36751C16.604 5.78161 16.6935 6.22458 16.6667 6.66796ZM4.16667 23.3335C4.16667 22.0075 4.82515 20.7358 5.99725 19.7982C7.16935 18.8605 8.75906 18.3338 10.4167 18.3338H14.5833C16.2409 18.3338 17.8306 18.8605 19.0028 19.7982C20.1749 20.7358 20.8333 22.0075 20.8333 23.3335V25H25V23.3335C25 22.2392 24.7306 21.1556 24.2071 20.1446C23.6836 19.1337 22.9163 18.2151 21.949 17.4413C20.9818 16.6675 19.8334 16.0538 18.5696 15.635C17.3058 15.2162 15.9513 15.0007 14.5833 15.0007H10.4167C7.65399 15.0007 5.00447 15.8786 3.05097 17.4413C1.09747 19.004 0 21.1235 0 23.3335V25H4.16667V23.3335Z" fill="black"/>
</svg>
