<svg width="79" height="79" viewBox="0 0 79 79" fill="none" xmlns="http://www.w3.org/2000/svg">
<path d="M73.3571 39.5C73.3571 41.1458 74.2976 44.4375 76.1786 49.375C78.0595 54.3125 79 57.6042 79 59.25C79 62.5931 78.4269 65.7562 77.2807 68.7393C76.1345 71.7223 74.4593 74.1782 72.255 76.1069C70.0508 78.0356 67.5967 79 64.8929 79H25.3929C24.6287 79 23.9674 78.7557 23.409 78.2671C22.8506 77.7785 22.5714 77.1999 22.5714 76.5312C22.5714 75.8626 22.8506 75.284 23.409 74.7954C23.9674 74.3068 24.6287 74.0625 25.3929 74.0625C26.2158 74.0625 26.8917 73.8311 27.4208 73.3682C27.9498 72.9053 28.2143 72.3138 28.2143 71.5938C28.2143 70.2565 27.6265 68.7007 26.4509 66.9263C25.2753 65.1519 23.8646 63.326 22.2187 61.4487C20.5729 59.5715 18.9271 57.6299 17.2812 55.624C15.6354 53.6182 14.2247 51.4066 13.0491 48.9893C11.8735 46.5719 11.2857 44.2318 11.2857 41.9688C11.2857 38.1113 13.0491 34.9225 16.5759 32.4023C15.8705 30.5508 14.1071 29.625 11.2857 29.625C9.5811 29.625 7.80301 29.0978 5.95145 28.0435C4.09989 26.9891 2.64509 25.8833 1.58705 24.7261C0.529018 23.5688 0 22.7331 0 22.2188C0 21.5501 0.279204 20.9715 0.837612 20.4829C1.39602 19.9943 2.05729 19.75 2.82143 19.75C3.29167 19.75 3.79129 19.39 4.32031 18.6699C4.84933 17.9499 5.45182 17.0498 6.12779 15.9697C6.80376 14.8896 7.58259 13.7967 8.46429 12.6909C9.34598 11.5851 10.5216 10.5565 11.9911 9.60498C13.4606 8.65348 15.1064 7.99772 16.9286 7.6377V0C18.2805 0 19.8676 0.912923 21.6897 2.73877C23.5119 4.56462 24.6875 6.45475 25.2165 8.40918C28.0379 9.43783 30.1834 11.2251 31.6529 13.771C33.1224 16.3169 33.8571 19.1328 33.8571 22.2188C33.8571 23.7103 34.2245 25.1247 34.9593 26.4619C35.694 27.7992 36.7374 28.995 38.0893 30.0493C39.4412 31.1037 40.5433 31.9009 41.3956 32.4409C42.248 32.981 43.3207 33.5853 44.6138 34.2539C44.849 34.4082 45.0253 34.5111 45.1429 34.5625C48.5521 36.2598 51.3735 37.9056 53.6071 39.5C57.6629 42.4316 61.0281 46.109 63.7026 50.5322C66.377 54.9554 67.7143 58.6842 67.7143 61.7188C67.7143 61.9245 67.7437 62.1559 67.8025 62.4131C67.8612 62.6702 68.1257 63.0303 68.596 63.4932C69.0662 63.9561 69.7128 64.1875 70.5357 64.1875C71.3586 64.1875 72.0346 63.7889 72.5636 62.9917C73.0926 62.1945 73.3571 60.9473 73.3571 59.25C73.3571 57.4499 72.9751 55.6497 72.2109 53.8496C71.4468 52.0495 70.5063 50.3394 69.3895 48.7192C68.2727 47.0991 67.1559 45.4147 66.0391 43.666C64.9222 41.9173 63.9818 39.8215 63.2176 37.3784C62.4535 34.9354 62.0714 32.3509 62.0714 29.625C62.0714 27.1562 63.247 24.8932 65.5982 22.8359C67.9494 20.7786 70.5357 19.75 73.3571 19.75C74.9442 19.75 76.2814 20.2257 77.3689 21.1772C78.4563 22.1287 79 23.2988 79 24.6875C79 25.5104 78.8237 26.2433 78.471 26.8862C78.1183 27.5291 77.6628 28.1206 77.1044 28.6606C76.5459 29.2007 76.2374 29.5221 76.1786 29.625C74.2976 32.3509 73.3571 35.6426 73.3571 39.5Z" fill="black"/>
</svg>
