<svg width="79" height="79" viewBox="0 0 79 79" fill="none" xmlns="http://www.w3.org/2000/svg">
<path d="M63.1835 79H23.7247C23.0108 79 22.3929 78.7559 21.8712 78.2678C21.3495 77.7797 21.0886 77.2016 21.0886 76.5337C21.0886 75.8657 21.3495 75.2876 21.8712 74.7995C22.3929 74.3114 23.0108 74.0673 23.7247 74.0673C24.4936 74.0673 25.1251 73.8361 25.6194 73.3737C26.1137 72.9112 26.3608 72.3203 26.3608 71.601C26.3608 69.3915 25.7292 66.8995 24.4661 64.1249C23.203 61.3502 21.2534 57.8434 18.6173 53.6044C15.9812 49.3654 14.1689 46.321 13.1804 44.4712C12.1919 42.6729 11.066 41.247 9.80292 40.1937C8.5398 39.1403 7.35905 38.4595 6.26069 38.1512C5.16232 37.8429 4.11887 37.5989 3.13034 37.419C2.14181 37.2392 1.37296 36.9566 0.823775 36.5712C0.274592 36.1859 0 35.5307 0 34.6059C0 32.3964 1.22193 29.7888 3.6658 26.7829C6.10966 23.7771 8.73201 21.2979 11.5328 19.3454C10.8738 14.8238 10.5443 10.893 10.5443 7.55319C10.5443 5.70343 11.2033 4.00782 12.5214 2.46636C13.8394 0.924897 14.9378 0.154166 15.8165 0.154166C16.4206 0.154166 16.956 0.680832 17.4228 1.73417C17.8896 2.7875 18.2054 4.11059 18.3702 5.70343C18.8644 4.00782 19.9079 2.59482 21.5005 1.46441C23.0932 0.334003 24.3014 -0.128436 25.1251 0.0770927C25.8391 0.282621 26.2372 1.11758 26.3196 2.58197C26.402 4.04636 26.1686 5.70343 25.6194 7.55319C24.9604 9.814 23.203 13.4621 20.3472 18.4976C21.2808 19.1142 21.9536 20.0904 22.3655 21.4264C22.7774 22.7623 23.2579 24.2138 23.8071 25.781C24.3563 27.3481 25.2075 28.6712 26.3608 29.7503C27.5141 30.8293 29.5049 31.7927 32.3332 32.6405C35.1615 33.4883 37.9897 34.1563 40.818 34.6444C43.6463 35.1325 46.4746 35.8005 49.3029 36.6483C52.1312 37.4961 54.122 38.4595 55.2753 39.5385C58.845 42.827 61.9341 47.0275 64.5428 52.14C67.1514 57.2525 68.4557 61.2732 68.4557 64.202V65.8205C70.268 64.7415 72.0254 64.202 73.7278 64.202C75.2106 64.202 76.46 64.6901 77.476 65.6663C78.492 66.6426 79 67.7987 79 69.1346C79 70.6761 78.0527 72.2432 76.158 73.8361C74.2633 75.4289 72.0803 76.6878 69.609 77.6127C67.1376 78.5376 64.9958 79 63.1835 79Z" fill="black"/>
</svg>
